<svg width="1440" height="707" viewBox="0 0 1440 707" fill="none" xmlns="http://www.w3.org/2000/svg">
<path d="M-689.459 676.283C-689.459 755.288 -174.858 819.324 459.939 819.324C1094.74 819.324 1609.34 755.273 1609.34 676.283C1609.34 597.278 1094.74 533.228 459.939 533.228C-174.858 533.228 -689.459 597.278 -689.459 676.283Z" fill="#F9C7BB"/>
<path d="M644.495 420.737C652.281 414.852 622.666 388.45 622.687 388.414C622.627 388.503 615.93 397.415 574.953 404.819C546.428 409.971 524.831 403.014 508.919 383.544C496.924 368.868 497.31 355.24 496.134 350.348C495.977 349.698 478.15 347.286 477.664 346.035L467.127 347.965C466.72 346.911 456.893 349.684 456.811 349.355L454.674 358.778C456.804 367.636 462.178 387.606 478.904 408.074C496.281 429.334 528.243 452.646 581.845 442.963C611.078 437.681 631.67 430.431 644.495 420.737Z" fill="#EA9A81"/>
<path d="M612.643 414.617L614.144 414.756C616.945 415.021 619.454 412.945 619.714 410.147L622.291 382.862C622.555 380.06 620.479 377.556 617.678 377.288L616.18 377.145C613.379 376.88 610.874 378.956 610.606 381.758L608.034 409.043C607.766 411.844 609.842 414.353 612.643 414.617Z" fill="#EA9A81"/>
<path d="M621.503 393.981C623.179 395.593 625.869 395.543 627.484 393.867L649.935 370.537C651.547 368.861 651.497 366.171 649.821 364.556C648.145 362.944 645.454 362.994 643.839 364.67L621.389 388C619.773 389.672 619.823 392.366 621.503 393.981Z" fill="#EA9A81"/>
<path d="M628.155 428.916C628.155 428.916 644.517 420.74 654.068 413.28C658.753 409.621 636.674 379.53 630.417 381.821C624.161 384.108 610.532 401.345 610.532 401.345L628.155 428.916Z" fill="#EA9A81"/>
<path d="M349.413 333.952C349.413 333.952 372.16 293.549 427.527 304.719C482.898 315.889 513.113 394.375 498.095 549.832C498.095 549.832 410.133 515.196 295.757 543.118C295.757 543.114 314.585 392.563 349.413 333.952Z" fill="#ED6B6C"/>
<path d="M307.175 317.625L346.095 356.102C346.095 356.102 445.87 382.798 473.584 382.48C501.298 382.161 512.207 362.101 512.207 362.101C512.207 362.101 488.817 325.419 441.493 308.825C437.048 307.26 432.395 305.88 427.529 304.719C419.357 302.779 411.049 301.657 402.806 301.171C353.809 298.284 307.175 317.625 307.175 317.625Z" fill="#ED6B6C"/>
<path d="M433.466 341.766L433.512 340.098C403.758 339.251 393.028 313.741 392.924 313.484L391.377 314.113C391.488 314.388 394.189 320.906 400.732 327.62C406.774 333.819 417.358 341.305 433.466 341.766Z" fill="#30262A"/>
<path d="M419.3 356.044L420.182 354.625C420.029 354.529 404.85 344.892 402.888 327.651L401.23 327.84C403.281 345.899 419.139 355.944 419.3 356.044Z" fill="#30262A"/>
<path d="M485.672 360.624L484.088 361.15L490.2 379.565L491.784 379.039L485.672 360.624Z" fill="#CC6E58"/>
<path d="M307.183 317.626C300.962 324.322 310.556 331.64 321.304 342.263C332.049 352.89 343.155 359.086 346.103 356.102C349.05 353.122 342.729 342.088 331.981 331.465C321.236 320.838 310.038 314.553 307.183 317.626Z" fill="#30262A"/>
<path d="M340.918 356.258C340.918 356.258 341.497 348.572 331.746 338.76C325.871 332.85 318.435 328.987 313.447 326.85C310.481 325.578 307.058 327.008 305.883 330.013L302.763 337.981L317.292 347.246L340.918 356.258Z" fill="#EA9A81"/>
<path d="M409.692 498.78C409.692 498.78 289.625 434.34 246.589 504.636C214.73 556.669 262.618 605.13 440.247 600.209C440.247 600.209 457.802 592.066 453.525 549.827C451.831 533.093 409.692 498.78 409.692 498.78Z" fill="#F7F0F7"/>
<path d="M409.69 498.781C409.69 498.781 569.603 433.909 601.243 474.462C637.608 521.071 602.737 600.207 434.174 571.918L413.631 549.825L409.69 498.781Z" fill="#F7F0F7"/>
<path d="M454.544 561.448C454.544 561.448 484.016 562.634 497.859 569.359C511.702 576.084 504.309 592.495 476.202 592.056C448.095 591.616 450.228 587.475 450.228 587.475C450.228 587.475 455.566 573.068 454.544 561.448Z" fill="#30262A"/>
<path d="M440.435 600.482C460.156 586.546 453.917 550.135 453.852 549.771L453.817 549.581L453.634 549.517L332.245 505.763L332.016 506.395L453.22 550.081C453.681 552.936 458.687 586.768 440.045 599.942L440.435 600.482Z" fill="#020202"/>
<path d="M650.326 353.904L652.806 341.365C577.532 329.574 543.397 333.59 535.447 344.402C508.558 321.212 460.466 335.041 424.412 335.859C422.329 340.526 421.389 346.293 417.827 349.68C425.734 360.961 650.326 353.904 650.326 353.904Z" fill="#F7F0F7"/>
<path d="M503.059 524.065C503.059 526.205 525.517 526.205 525.517 524.065L543.401 482.158L547.975 346.289C545.884 347.84 527.689 348.219 525.517 346.289L499.922 478.413L503.059 524.065Z" fill="#93372B"/>
<path d="M525.519 524.065H636.51L658.968 346.293H547.976L525.519 524.065Z" fill="#EA4747"/>
<path d="M388.894 524.065H397.198L419.656 346.293H411.355L388.894 524.065Z" fill="#93372B"/>
<path d="M392.066 524.065H503.057L525.519 346.293H414.524L392.066 524.065Z" fill="#EA4747"/>
<path d="M567.693 422.127H620.959C626.827 422.127 631.772 418.372 632.501 413.366C633.369 407.395 627.956 402.117 620.959 402.117H567.693C561.826 402.117 556.881 405.873 556.152 410.879C555.283 416.85 560.697 422.127 567.693 422.127Z" fill="#93372B"/>
<path d="M416.829 501.871C426.587 501.871 418.887 462.948 418.923 462.937C418.819 462.973 408.103 466.042 370.952 447.24C345.089 434.151 332.057 415.574 331.103 390.45C330.385 371.509 338.911 360.871 340.923 356.262C341.191 355.647 328.423 342.973 328.788 341.683L319.219 336.866C319.526 335.78 310.018 332.064 310.154 331.753L302.768 337.981C299.123 346.332 291.369 365.502 292.37 391.915C293.409 419.354 304.851 457.227 353.447 481.821C379.953 495.235 400.753 501.871 416.829 501.871Z" fill="#EA9A81"/>
<path d="M418.005 488.047C418.37 490.345 420.55 491.928 422.847 491.563L458.519 485.907C460.816 485.542 462.399 483.363 462.035 481.065C461.674 478.768 459.491 477.185 457.193 477.549L421.521 483.206C419.227 483.57 417.644 485.746 418.005 488.047Z" fill="#EA9A81"/>
<path d="M416.301 477.348C416.665 479.646 418.841 481.229 421.143 480.864L461.034 474.533C463.332 474.168 464.911 471.989 464.55 469.691C464.186 467.393 462.006 465.81 459.708 466.175L419.817 472.503C417.516 472.871 415.936 475.051 416.301 477.348Z" fill="#EA9A81"/>
<path d="M395.09 477.766L396.201 478.781C398.274 480.682 401.529 480.539 403.426 478.463L421.936 458.249C423.837 456.173 423.69 452.922 421.618 451.021L420.506 450.002C418.43 448.101 415.179 448.248 413.278 450.32L394.772 470.534C392.871 472.614 393.014 475.865 395.09 477.766Z" fill="#EA9A81"/>
<path d="M414.611 466.654C414.975 468.952 417.155 470.531 419.453 470.17L451.429 465.096C453.727 464.732 455.31 462.552 454.945 460.254C454.581 457.957 452.405 456.377 450.104 456.738L418.127 461.809C415.829 462.177 414.246 464.356 414.611 466.654Z" fill="#EA9A81"/>
<path d="M398.843 498.526C398.843 498.526 421.351 507.352 436.154 498.637C441.278 495.621 435.418 464.266 429.047 462.322C422.676 460.375 401.412 465.906 401.412 465.906L398.843 498.526Z" fill="#EA9A81"/>
<path d="M419.661 498.673C420.026 500.967 422.198 502.543 424.492 502.182L456.405 497.119C458.699 496.754 460.275 494.582 459.914 492.288C459.549 489.998 457.377 488.415 455.083 488.779L423.174 493.842C420.876 494.207 419.3 496.379 419.661 498.673Z" fill="#EA9A81"/>
<path d="M643.688 410.844C644.052 413.138 646.225 414.713 648.519 414.353L654.061 413.281C656.355 412.916 657.931 410.744 657.57 408.45C657.205 406.159 655.033 404.576 652.739 404.941L647.197 406.013C644.903 406.377 643.327 408.55 643.688 410.844Z" fill="#EA9A81"/>
<path d="M642.042 402.693C642.406 404.987 644.579 406.563 646.873 406.202L657.017 404.64C659.311 404.276 660.887 402.103 660.526 399.809C660.161 397.519 657.989 395.936 655.695 396.3L645.551 397.862C643.256 398.226 641.677 400.402 642.042 402.693Z" fill="#EA9A81"/>
<path d="M640.827 386.067C641.192 388.361 643.364 389.936 645.658 389.576L655.803 388.014C658.097 387.65 659.673 385.477 659.312 383.183C658.947 380.893 656.775 379.31 654.481 379.674L644.336 381.236C642.042 381.6 640.466 383.776 640.827 386.067Z" fill="#EA9A81"/>
<path d="M640.827 394.495C641.192 396.789 643.364 398.365 645.658 398.004L658.243 396.146C660.537 395.781 662.113 393.609 661.752 391.315C661.388 389.024 659.215 387.441 656.921 387.806L644.336 389.66C642.042 390.028 640.466 392.201 640.827 394.495Z" fill="#EA9A81"/>
<path d="M316.115 440.729C313.489 436.18 313.417 431.467 315.954 430.002C317.234 429.262 318.924 429.48 320.714 430.613C322.372 431.664 323.951 433.4 325.166 435.505C327.793 440.054 327.864 444.767 325.327 446.232C324.827 446.521 324.266 446.661 323.669 446.661C321.246 446.661 318.223 444.381 316.115 440.729ZM316.623 431.16C314.8 432.214 315.097 436.287 317.273 440.057C319.449 443.827 322.829 446.121 324.655 445.07C326.478 444.016 326.181 439.943 324.005 436.173C322.897 434.251 321.472 432.678 319.996 431.742C319.135 431.196 318.313 430.913 317.616 430.913C317.244 430.917 316.909 430.996 316.623 431.16Z" fill="#E08B65"/>
<path d="M401.95 301.073C408.757 300.877 413.92 300.184 417.837 295.621L429.957 281.503L433.484 277.39L454.226 253.224L443.332 281.485L436.793 298.447L434.724 303.818C433.319 307.462 435.174 309.16 436.482 313.422C437.011 315.148 440.587 325.782 431.272 325.847C419.67 325.929 404.995 312.576 401.771 301.041C401.832 301.052 401.889 301.077 401.95 301.073Z" fill="#EA9A81"/>
<path d="M426.582 272.434C426.582 272.434 403.742 250.695 416.916 232.346C430.094 213.998 433.385 261.797 433.385 261.797L429.701 272.845L426.582 272.434Z" fill="#30262A"/>
<path d="M430.073 281.017C430.03 281.178 429.991 281.342 429.959 281.507C427.84 291.037 436.716 298.483 436.716 298.483L436.794 298.451L443.333 281.489C440.553 279.427 436.462 276.933 433.485 277.398C431.931 277.633 430.68 278.684 430.073 281.017Z" fill="#30262A"/>
<path d="M478.417 269.204C483.57 252.213 476.323 234.98 462.231 230.706C448.141 226.436 432.544 236.745 427.392 253.732C422.239 270.723 429.489 287.956 443.578 292.23C457.671 296.507 473.268 286.195 478.417 269.204Z" fill="#EA9A81"/>
<path d="M432.228 251.281C432.228 251.281 439.503 256.519 445.599 252.092C451.695 247.664 456.008 243.466 469.658 250.269C483.307 257.073 498.25 254.018 501.013 246.357C503.771 238.696 497.268 232.828 488.696 233.207C480.12 233.586 490.511 228.934 484.544 220.88C478.58 212.825 463.447 221.123 455.951 217.131C448.45 213.14 421.733 209.67 416.924 232.342L432.228 251.281Z" fill="#30262A"/>
<path d="M426.515 255.822C428.269 258.502 431.632 259.406 434.026 257.837C436.42 256.272 436.941 252.827 435.187 250.148C433.432 247.468 430.07 246.564 427.676 248.132C425.282 249.697 424.76 253.142 426.515 255.822Z" fill="#EA9A81"/>
<path d="M485.923 243.709C486.43 243.709 486.92 243.655 487.388 243.537C490.457 242.766 491.322 241.172 491.104 239.939C490.854 238.521 489.117 237.159 486.384 237.438C482.314 237.849 480.084 236.491 480.063 236.48L479.53 237.32C479.63 237.384 482.039 238.878 486.48 238.428C488.51 238.224 489.95 239.142 490.121 240.111C490.3 241.122 489.156 242.069 487.141 242.573C481.885 243.888 472.802 235.801 472.712 235.719L472.048 236.459C472.409 236.777 480.191 243.709 485.923 243.709Z" fill="white"/>
<path d="M462.338 224.728C467.877 224.728 472.851 222.355 473.283 221.859L472.536 221.205L472.912 221.534L472.562 221.18C472.054 221.605 463.929 225.496 456.982 222.802C454.66 221.902 452.619 220.833 450.65 219.801C446.613 217.685 443.125 215.863 439.141 216.628L439.331 217.603C442.972 216.899 446.316 218.654 450.19 220.68C452.187 221.723 454.249 222.806 456.625 223.728C458.487 224.453 460.448 224.728 462.338 224.728Z" fill="white"/>
<path d="M423.434 231.102C423.098 230.977 422.587 230.584 422.913 229.373L422.934 229.287L422.984 229.216C423.542 228.422 426.436 224.527 428.433 225.774C428.687 225.932 429.223 226.414 428.705 227.465C427.997 228.897 425.282 231.163 423.813 231.163C423.677 231.163 423.549 231.145 423.434 231.102ZM423.852 229.716C423.774 230.037 423.806 230.166 423.795 230.173C424.102 230.27 425.503 229.616 426.854 228.261C427.865 227.247 427.958 226.707 427.912 226.618C427.815 226.557 427.701 226.528 427.576 226.528C426.589 226.528 424.867 228.301 423.852 229.716Z" fill="white"/>
<path d="M458.018 262.307C458.179 262.285 458.332 262.189 458.418 262.035C458.565 261.774 458.472 261.446 458.211 261.303C458.057 261.217 454.688 258.901 451.075 261.964C450.846 262.157 450.807 262.493 450.997 262.725C451.186 262.957 451.49 262.936 451.758 262.803C454.43 261.464 457.557 262.178 457.686 262.246C457.789 262.303 457.907 262.325 458.018 262.307Z" fill="#060633"/>
<path d="M453.032 267.66C452.828 268.932 453.411 270.087 454.336 270.233C455.262 270.38 456.173 269.468 456.376 268.196C456.58 266.924 455.998 265.77 455.072 265.624C454.15 265.474 453.235 266.385 453.032 267.66Z" fill="#060633"/>
<path d="M476.911 269.09C477.033 269.122 477.172 269.083 477.29 268.965C477.483 268.769 477.533 268.433 477.401 268.215C477.322 268.086 475.75 264.831 472.123 266.514C471.895 266.621 471.748 266.921 471.802 267.196C471.855 267.472 472.077 267.554 472.313 267.514C474.671 267.132 476.633 268.815 476.697 268.922C476.75 269.012 476.826 269.069 476.911 269.09Z" fill="#060633"/>
<path d="M470.131 272.102C469.456 273.203 469.559 274.489 470.356 274.979C471.153 275.468 472.346 274.972 473.022 273.871C473.693 272.77 473.593 271.484 472.797 270.995C471.996 270.509 470.803 271.005 470.131 272.102Z" fill="#060633"/>
<path d="M454.676 285.645C456.577 285.645 457.91 285.32 457.945 285.309C458.145 285.259 458.27 285.052 458.217 284.852C458.167 284.652 457.96 284.53 457.759 284.58C457.388 284.673 448.591 286.799 444.263 279.227C444.16 279.045 443.928 278.984 443.749 279.088C443.567 279.192 443.506 279.42 443.61 279.603C446.522 284.694 451.428 285.645 454.676 285.645Z" fill="#020202"/>
<path d="M442.845 280.921C443.002 280.921 443.149 280.821 443.203 280.664C443.374 280.142 443.889 279.349 445.35 278.52C445.404 278.488 445.443 278.466 445.461 278.455C445.632 278.341 445.682 278.105 445.564 277.934C445.45 277.762 445.218 277.712 445.043 277.826L444.975 277.866C443.635 278.627 442.799 279.492 442.484 280.428C442.42 280.624 442.524 280.839 442.724 280.907C442.763 280.914 442.806 280.921 442.845 280.921Z" fill="#020202"/>
<path d="M468.037 288.196C463.478 283.722 463.692 273.356 468.516 265.088C471.478 260.007 475.637 256.651 479.639 256.115C482.033 255.794 484.188 256.501 485.878 258.159C490.438 262.633 490.223 272.999 485.399 281.267C482.434 286.349 478.278 289.704 474.276 290.24C473.901 290.29 473.529 290.315 473.168 290.315C471.217 290.315 469.459 289.593 468.037 288.196ZM479.789 257.227C476.13 257.716 472.279 260.868 469.488 265.652C464.907 273.506 464.61 283.261 468.827 287.396C470.26 288.8 472.093 289.4 474.133 289.129C477.792 288.639 481.644 285.487 484.435 280.703C489.015 272.849 489.312 263.094 485.099 258.96C483.891 257.777 482.398 257.162 480.74 257.162C480.425 257.162 480.107 257.184 479.789 257.227Z" fill="white"/>
<g opacity="0.3">
<path opacity="0.3" d="M441.357 252.943C437.451 261.165 438.531 271.17 443.769 275.286C449.004 279.403 456.415 276.076 460.32 267.854C464.226 259.632 463.147 249.627 457.908 245.511C452.673 241.391 445.263 244.721 441.357 252.943Z" fill="white"/>
</g>
<g opacity="0.3">
<path opacity="0.3" d="M468.121 265.749C464.202 274.01 464.734 284.033 469.304 288.139C473.878 292.245 480.76 288.872 484.68 280.61C488.6 272.349 488.067 262.326 483.497 258.22C478.927 254.118 472.041 257.488 468.121 265.749Z" fill="white"/>
</g>
<path d="M443.952 275.508C438.167 271.034 436.892 260.253 441.108 251.474C443.559 246.368 447.368 242.873 451.553 241.88C454.44 241.197 457.202 241.791 459.539 243.595C465.324 248.069 466.599 258.849 462.383 267.629C459.932 272.735 456.123 276.229 451.938 277.223C451.16 277.409 450.391 277.498 449.634 277.498C447.59 277.498 445.657 276.826 443.952 275.508ZM451.813 242.973C448.015 243.87 444.392 247.233 442.119 251.96C438.121 260.286 439.25 270.455 444.638 274.621C446.697 276.212 449.133 276.737 451.681 276.133C455.48 275.232 459.103 271.874 461.375 267.146C465.374 258.821 464.245 248.655 458.856 244.485C457.352 243.324 455.648 242.73 453.847 242.73C453.178 242.73 452.499 242.809 451.813 242.973Z" fill="white"/>
<path d="M468.79 269.272C469.015 269.272 469.244 269.201 469.433 269.051C469.887 268.697 469.973 268.043 469.619 267.589C469.505 267.443 466.782 263.998 460.976 263.855C460.397 263.83 459.918 264.298 459.904 264.877C459.889 265.456 460.347 265.935 460.926 265.949C465.689 266.067 467.875 268.761 467.968 268.875C468.172 269.133 468.479 269.272 468.79 269.272Z" fill="white"/>
<path d="M563.923 126.436C563.923 130.279 592.994 133.394 628.858 133.394C664.722 133.394 693.658 138.952 693.658 135.108C693.658 107.617 664.717 81.8146 628.858 81.8146C592.989 81.8146 563.923 101.788 563.923 126.436Z" fill="#D3A09F"/>
<path d="M564.045 126.824C563.876 129.508 577.891 132.742 598.575 135.231C599.764 135.371 600.984 135.511 602.224 135.651C610.216 136.541 619.078 137.316 628.405 137.915C636.328 138.425 643.926 138.75 650.958 138.92C653.508 138.985 655.977 139.025 658.366 139.045C679.165 139.21 693.475 137.795 693.65 135.111C693.795 132.797 683.378 130.073 667.228 127.773C665.944 127.594 664.624 127.414 663.265 127.234C656.432 126.339 648.734 125.519 640.487 124.844C636.848 124.545 633.109 124.265 629.29 124.02C626.626 123.845 623.987 123.7 621.413 123.57C610.496 123.015 600.389 122.8 591.812 122.905C591.607 122.905 591.402 122.91 591.202 122.91C574.887 123.135 564.195 124.515 564.045 126.824Z" fill="#EABCB5"/>
<path d="M591.806 122.905C593.7 126.479 596.094 129.743 598.898 132.612C599.948 133.682 601.053 134.701 602.212 135.651C609.445 141.619 618.737 145.208 628.864 145.208C636.972 145.208 644.539 142.904 650.952 138.915C653.826 137.136 656.466 135.006 658.815 132.602C660.439 130.938 661.934 129.143 663.258 127.229C656.426 126.334 648.728 125.514 640.481 124.839C636.842 124.54 633.103 124.26 629.284 124.015C626.62 123.84 623.981 123.695 621.406 123.565C610.49 123.015 600.383 122.8 591.806 122.905Z" fill="#F7F0F7"/>
<path d="M628.852 86.4226C630.392 86.4226 631.641 85.1729 631.641 83.6334V38.1626C631.641 36.623 630.392 35.3734 628.852 35.3734C627.313 35.3734 626.063 36.623 626.063 38.1626V83.6334C626.063 85.1779 627.313 86.4226 628.852 86.4226Z" fill="#D3A09F"/>
<path d="M636.925 83.0179C636.925 78.5543 633.306 74.9354 628.842 74.9354C624.379 74.9354 620.76 78.5543 620.76 83.0179C620.76 87.4815 624.379 91.1004 628.842 91.1004C633.306 91.1054 636.925 87.4865 636.925 83.0179Z" fill="#D3A09F"/>
<path d="M163.743 47.0644C164.319 47.0644 164.656 47.0338 164.672 47.0308L164.635 46.6693C164.564 46.6755 157.464 47.3217 151.918 42.3843L151.676 42.6569C156.144 46.6356 161.599 47.0644 163.743 47.0644Z" fill="#EABCB5"/>
<path d="M155.532 51.196C158.043 50.8346 159.627 49.6952 160.512 48.8039C161.477 47.8329 161.838 46.9569 161.854 46.9202L161.517 46.7823C161.505 46.816 160.08 50.1699 155.48 50.8346L155.532 51.196Z" fill="#EABCB5"/>
<path d="M274.132 99.9361H287.391L288.776 47.5416C288.776 47.5416 286.751 46.5675 283.599 46.2704C279.327 45.8661 275.446 46.0315 275.446 46.0315L274.132 99.9361Z" fill="#FFE5DE"/>
<path d="M240.134 99.9366H274.129L275.443 46.0352L240.134 47.5421V99.9366Z" fill="#EABCB5"/>
<path d="M252.464 99.9362H262.363V34.9255C262.363 34.9255 260.314 34.3497 257.613 34.1322C254.639 33.8933 250.798 34.1322 250.798 34.1322L252.464 99.9362Z" fill="#FFE5DE"/>
<path d="M227.073 99.936H252.461L250.798 34.132L227.073 34.9252V99.936Z" fill="#EABCB5"/>
<path d="M228.726 99.9356H236.178L246.528 50.9991C246.528 50.9991 245.269 50.6744 243.364 50.5856C241.155 50.4815 239.076 50.9991 239.076 50.9991L228.726 99.9356Z" fill="#FFE5DE"/>
<path d="M209.614 99.9357H228.727L239.077 50.9993L220.126 53.7038L209.614 99.9357Z" fill="#ED6B6C"/>
<path d="M288.547 54.426L288.636 54.0799C288.608 54.0737 285.775 53.3417 282.687 53.5255C279.655 53.7031 275.52 52.7107 275.48 52.7015L275.395 53.0477C275.437 53.0568 279.624 54.0646 282.709 53.8808C285.744 53.7031 288.519 54.4168 288.547 54.426Z" fill="#EABCB5"/>
<path d="M262.342 40.0743L262.394 39.7221C262.326 39.7129 255.438 38.7113 250.911 39.7252L250.987 40.0743C255.453 39.0728 262.274 40.0652 262.342 40.0743Z" fill="#EABCB5"/>
<path d="M251.107 43.5568C254.826 41.9059 262.278 42.5154 262.351 42.5215L262.382 42.1662C262.073 42.1417 254.768 41.5444 250.963 43.2321L251.107 43.5568Z" fill="#EABCB5"/>
<path d="M262.346 91.7949L262.401 91.4427C262.122 91.3998 255.568 90.3768 252.208 91.4488L252.315 91.7888C255.595 90.7444 262.278 91.7858 262.346 91.7949Z" fill="#EABCB5"/>
<path d="M262.34 93.5805L262.386 93.2252C262.322 93.216 256.006 92.3982 252.257 93.2282L252.333 93.5774C256.024 92.7626 262.279 93.5743 262.34 93.5805Z" fill="#EABCB5"/>
<path d="M245.342 56.6242L245.416 56.275C245.22 56.2321 240.592 55.2673 237.863 56.2811L237.988 56.615C240.623 55.6349 245.297 56.615 245.342 56.6242Z" fill="#ED6B6C"/>
<path d="M245.017 58.1174L245.079 57.7652C244.898 57.7345 240.643 56.9994 237.571 57.7682L237.657 58.1144C240.656 57.3639 244.974 58.1082 245.017 58.1174Z" fill="#ED6B6C"/>
<path d="M238.014 91.3198L238.073 90.9676C237.889 90.9369 233.509 90.2263 230.547 90.9706L230.633 91.3167C233.524 90.5877 237.968 91.3106 238.014 91.3198Z" fill="#ED6B6C"/>
<path d="M230.224 93.2097C233.955 92.4102 237.553 93.2005 237.59 93.2097L237.67 92.8605C237.633 92.8513 233.958 92.0427 230.15 92.8605L230.224 93.2097Z" fill="#ED6B6C"/>
<path d="M160.132 88.0549C160.132 88.0549 160.374 88.6798 160.9 89.7181C160.916 89.7457 160.931 89.7763 160.943 89.8039C160.946 89.8069 160.946 89.8069 160.946 89.81C161.871 91.6079 163.633 94.5698 166.453 97.6113C167.415 98.6496 168.72 99.4613 170.252 100.062H170.255L170.285 100.074C170.613 100.199 170.95 100.319 171.296 100.426C171.296 100.426 171.296 100.426 171.299 100.426C176.23 101.979 182.999 101.648 188.317 99.9575H188.32L189.236 99.6481H189.239C189.695 99.4827 190.136 99.3112 190.562 99.1274C191.937 98.5363 193.055 97.7859 193.965 96.9527C194.081 96.8455 194.191 96.7414 194.302 96.6311C197.989 92.9832 197.922 88.0549 197.922 88.0549H160.132Z" fill="#F28686"/>
<path d="M158.927 80.6023V85.993C158.927 89.3286 168.043 92.0332 179.29 92.0332C190.534 92.0332 199.652 89.3286 199.652 85.993V80.6023C199.652 78.9085 194.402 77.4567 186.956 76.8563C184.589 76.6634 182.001 76.5562 179.29 76.5562C168.043 76.5592 158.927 78.3664 158.927 80.6023Z" fill="#EABCB5"/>
<path d="M158.927 80.6023C158.927 80.927 159.12 81.2425 159.482 81.5457C161.617 83.3222 169.672 84.6484 179.29 84.6484C181.982 84.6484 184.555 84.5443 186.907 84.3544C194.378 83.7541 199.652 82.3022 199.652 80.6023C199.652 78.9085 194.402 77.4567 186.956 76.8563C184.589 76.6634 182.001 76.5562 179.29 76.5562C168.043 76.5592 158.927 78.3664 158.927 80.6023Z" fill="#ED6B6C"/>
<path d="M178.059 24.7321C180.013 26.0063 180.957 25.6969 181.407 24.8454C181.857 23.9939 181.64 22.925 179.685 21.6508C176.126 19.3291 173.593 19.7487 173.593 19.7487C173.593 19.7487 174.448 22.3767 178.059 24.7321Z" fill="#EABCB5"/>
<path d="M178.161 41.0447C179.637 42.9529 180.623 42.9988 181.297 42.3556C181.971 41.7124 182.075 40.622 180.599 38.7138C177.906 35.2373 175.389 34.7228 175.389 34.7228C175.389 34.7228 175.432 37.5192 178.161 41.0447Z" fill="#EABCB5"/>
<path d="M179.064 83.5036L179.49 83.4638C179.484 83.3903 178.945 76.0209 181.174 65.224C183.23 55.2634 188.13 40.2642 199.8 25.3753L199.479 25.0629C187.744 40.0314 182.819 55.1164 180.755 65.1383C178.513 75.9994 179.058 83.4301 179.064 83.5036Z" fill="#EABCB5"/>
<path d="M187.987 43.8574L188.348 43.6001C179.952 29.0267 185.012 11.3352 185.064 11.1575L184.657 11.0105C184.602 11.1881 179.481 29.091 187.987 43.8574Z" fill="#EABCB5"/>
<path d="M194.432 36.1249C198.787 36.1249 202.077 33.7021 202.114 33.6745L201.875 33.2794C201.832 33.31 197.614 36.4097 192.468 35.4755L192.398 35.9472C193.096 36.0698 193.776 36.1249 194.432 36.1249Z" fill="#EABCB5"/>
<path d="M179.791 72.7663C188.597 71.6545 195.733 66.8824 201.002 58.5819C201.186 58.294 201.357 58.0244 201.409 57.9754C201.409 57.9754 201.394 57.9908 201.366 57.9999L201.231 57.5497C201.112 57.5926 201.035 57.7089 200.656 58.3093C195.461 66.4904 188.425 71.1981 179.748 72.2946L179.791 72.7663Z" fill="#EABCB5"/>
<path d="M192.229 67.6383L192.643 67.5128C191.12 61.2705 194.866 52.0909 194.903 51.999L194.514 51.7999C194.505 51.8244 193.54 54.1737 192.78 57.2734C192.079 60.1495 191.411 64.2783 192.229 67.6383Z" fill="#EABCB5"/>
<path d="M200.083 22.7174C197.814 24.9901 197.624 26.2612 198.218 26.9932C198.812 27.7253 199.97 27.6426 202.236 25.3699C206.368 21.2288 207.287 17.8994 207.287 17.8994C207.287 17.8994 204.276 18.5151 200.083 22.7174Z" fill="#EABCB5"/>
<path d="M200.973 32.1347C198.195 33.5436 197.666 34.6892 198.033 35.5866C198.401 36.484 199.528 36.7934 202.306 35.3844C207.369 32.8208 209.148 29.9539 209.148 29.9539C209.148 29.9539 206.11 29.5312 200.973 32.1347Z" fill="#EABCB5"/>
<path d="M193.626 50.448C192.588 52.687 192.919 53.7193 193.709 54.1695C194.499 54.6228 195.445 54.3227 196.484 52.0836C198.374 48.0069 197.859 45.2196 197.859 45.2196C197.859 45.2196 195.547 46.3131 193.626 50.448Z" fill="#EABCB5"/>
<path d="M190.055 28.5351C189.538 30.9855 190.086 31.8982 190.95 32.1218C191.814 32.3454 192.668 31.8002 193.186 29.3499C194.126 24.8841 193.017 22.3204 193.017 22.3204C193.017 22.3204 191.011 24.0051 190.055 28.5351Z" fill="#EABCB5"/>
<path d="M186.56 65.1125C186.686 67.6272 187.439 68.3317 188.327 68.2766C189.213 68.2214 189.896 67.4312 189.77 64.9165C189.543 60.3374 187.828 58.2209 187.828 58.2209C187.828 58.2209 186.33 60.4661 186.56 65.1125Z" fill="#EABCB5"/>
<path d="M199.058 58.1569C197.613 60.0958 197.738 61.1831 198.421 61.811C199.104 62.442 200.09 62.3746 201.533 60.4357C204.164 56.9042 204.198 54.0557 204.198 54.0557C204.198 54.0557 201.726 54.5733 199.058 58.1569Z" fill="#EABCB5"/>
<path d="M183.753 9.07986C183.043 12.3817 183.53 13.5487 184.394 13.7784C185.257 14.0081 186.17 13.2118 186.881 9.90992C188.176 3.89432 187.242 0.571045 187.242 0.571045C187.242 0.571045 185.067 2.97544 183.753 9.07986Z" fill="#EABCB5"/>
<path d="M178.747 84.1401C178.747 84.1401 189.915 37.8163 201.11 41.6542C212.305 45.4951 187.44 70.8531 184.573 84.4525L178.747 84.1401Z" fill="#D3A09F"/>
<path d="M180.395 82.0492C180.395 82.0492 197.483 44.8774 208.145 50.4305C218.807 55.9836 190.766 72.5081 186.159 83.5041L180.395 82.0492Z" fill="#EABCB5"/>
<path d="M183.691 82.9351C189.532 68.2974 204.941 55.528 205.098 55.3994L204.816 54.9767C204.66 55.1053 189.152 67.9543 183.259 82.7207L183.691 82.9351Z" fill="#EABCB5"/>
<path d="M148.001 55.7658C152.001 61.4843 144.999 68.9486 151.713 72.6027C158.43 76.2537 158.222 75.0592 158.874 80.2386C158.874 80.2386 158.77 81.0289 159.475 81.5496C161.609 83.3261 169.665 84.6523 179.283 84.6523C181.975 84.6523 184.548 84.5482 186.9 84.3583C187.485 82.6859 188.036 79.9293 186.949 76.8602C186.551 75.7331 185.929 74.5661 185.007 73.393C180.005 67.0435 176.002 68.3116 177.148 56.5591C178.29 44.8035 164.002 49.888 160.43 45.9185C156.859 41.9489 154.427 37.5015 148.001 39.2474C141.569 40.9963 143.998 50.0503 148.001 55.7658Z" fill="#FFE5DE"/>
<path d="M176.31 85.0748L176.721 84.9431C176.669 84.7409 171.183 64.4766 146.346 40.2518L146.064 40.6102C170.806 64.743 176.258 84.8726 176.31 85.0748Z" fill="#EABCB5"/>
<path d="M168.733 59.5387C174.592 59.3059 177.177 57.1986 177.284 57.1098L177.027 56.73C177.003 56.7514 174.427 58.8373 168.717 59.0639L168.733 59.5387Z" fill="#EABCB5"/>
<path d="M165.178 62.9422C167.5 61.9774 169.408 59.2422 170.692 55.0398C171.653 51.8911 171.938 48.9844 171.941 48.9568L171.516 48.9078C171.503 49.0212 170.373 60.2774 165.028 62.4981L165.178 62.9422Z" fill="#EABCB5"/>
<path d="M159.008 56.1038C159.684 56.1038 160.08 56.064 160.098 56.061L160.055 55.5862C159.972 55.5954 151.632 56.4377 145.111 49.9933L144.826 50.3486C150.079 55.5433 156.487 56.1038 159.008 56.1038Z" fill="#EABCB5"/>
<path d="M149.351 61.4962C152.304 61.0245 154.163 59.539 155.201 58.3751C156.335 57.1101 156.761 55.9646 156.779 55.9156L156.381 55.7349C156.365 55.7777 154.693 60.1608 149.29 61.0246L149.351 61.4962Z" fill="#EABCB5"/>
<path d="M160.993 78.6459C167.377 78.6459 172.008 74.2874 172.06 74.2353L171.781 73.8739C171.723 73.929 165.989 79.3198 158.543 77.9445L158.473 78.4162C159.336 78.5755 160.179 78.6459 160.993 78.6459Z" fill="#EABCB5"/>
<path d="M167.327 77.0434L167.691 76.7922C166.417 74.5257 163.449 71.4811 156.533 69.8455C152.419 68.8746 148.796 68.8623 148.762 68.8623V69.3401C148.903 69.3371 163.051 69.432 167.327 77.0434Z" fill="#EABCB5"/>
<path d="M144.094 106.258L290.588 107.701V99.1124H145.393L144.094 106.258Z" fill="#EABCB5"/>
</svg>
